<?xml version="1.0" encoding="utf-8"?>
<!-- Generator: Adobe Illustrator 19.1.0, SVG Export Plug-In . SVG Version: 6.00 Build 0)  -->
<svg version="1.1" id="Layer_1" xmlns="http://www.w3.org/2000/svg" xmlns:xlink="http://www.w3.org/1999/xlink" x="0px" y="0px"
	 viewBox="0 0 264 114" style="enable-background:new 0 0 264 114;" xml:space="preserve">
<style type="text/css">
	.st0{fill:url(#SVGID_1_);}
	.st1{fill:#E00C47;}
</style>
<linearGradient id="SVGID_1_" gradientUnits="userSpaceOnUse" x1="0" y1="57" x2="264" y2="57">
	<stop  offset="0" style="stop-color:#D70D51"/>
	<stop  offset="1" style="stop-color:#EE4036"/>
</linearGradient>
<path class="st0" d="M28.5,0C12.9,0,0,12.5,0,28.1V33v58.8V114h235.5c15.6,0,28.5-12.8,28.5-28.4v-1.3V22.9V0H28.5z M249,85.6
	L249,85.6c0,7.6-5.9,14.4-13.5,14.4H15v-8.8V31.2v-3.2C15,20.5,20.9,14,28.5,14H249v8.1V85.6z"/>
<g>
	<polygon class="st1" points="203.2,55 215,76.2 224.7,76.2 224.7,37.7 215,37.7 215,58.7 203.2,37.5 193.4,37.5 193.5,37.7 
		193.4,37.7 193.4,76.2 203.2,76.2 	"/>
	<polygon class="st1" points="83.6,76.2 93.3,76.2 93.3,61.5 105.2,37.5 95.4,37.5 88.5,51.6 81.5,37.5 71.7,37.5 83.6,61.5 	"/>
	<path class="st1" d="M168.8,76.6c9.6-0.8,17.3-8.5,18.1-18.1c1-12.2-9.2-22.3-21.3-21.3c-9.6,0.8-17.3,8.5-18.1,18.1
		C146.5,67.4,156.6,77.5,168.8,76.6z M168.5,46.6c4.6,0.6,8.3,4.3,8.9,8.9c0.9,6.8-4.8,12.5-11.6,11.6c-4.6-0.6-8.3-4.3-8.9-8.9
		C156,51.4,161.7,45.7,168.5,46.6z"/>
	<path class="st1" d="M122.3,61.4h2l7.3,14.9h10.6l-7.8-16c4.1-1.9,7-6,7-10.9c0-6.5-5.3-11.9-11.8-11.9v0h-0.1h-7.1h-7.8h-2v6.2
		v32.6h9.8V61.4z M121.8,45.9h5.8c2.5,0,4.4,2.2,3.9,4.8c-0.4,1.9-2.1,3.2-4,3.2h-5.6V45.9z"/>
	<path class="st1" d="M47.6,76.2h8.7v0c0.1,0,0.1,0,0.2,0c6,0,10.9-4.9,10.9-10.9c0-3.9-2-7.3-5.1-9.2c2.6-1.9,4.3-4.9,4.3-8.3
		c0-5.5-4.3-10-9.7-10.3v0h-0.6h-8.7h-4.9h-4.9v6.2v32.6h4.9H47.6z M47.5,45.9h6.1c2.1,0,3.7,1.9,3.3,4c-0.3,1.6-1.8,2.6-3.4,2.6h-6
		V45.9z M47.5,60.8h6.6c2.1,0,3.7,1.9,3.3,4c-0.3,1.6-1.8,2.6-3.4,2.6h-6.4V60.8z"/>
</g>
</svg>
